<svg width="289.602" height="90.825" viewBox="0 0 289.602 90.825" xmlns="http://www.w3.org/2000/svg">
	<g id="svgGroup" stroke-linecap="round" fill-rule="evenodd" font-size="9pt" stroke="#000" stroke-width="0.25mm" fill="none" style="stroke:#000;stroke-width:0.25mm;fill:none">
		<path d="M 0 89.358 L 35.889 89.358 A 6.657 6.657 0 0 0 35.777 88.082 Q 35.376 86.04 33.545 85.696 A 7.452 7.452 0 0 0 32.08 85.55 L 24.316 85.55 L 24.316 5.276 L 35.889 5.276 L 35.889 1.468 L 0 1.468 L 0 5.276 L 11.719 5.276 L 11.719 85.55 L 0 85.55 L 0 89.358 Z" id="0" vector-effect="non-scaling-stroke"/>
		<path d="M 105.029 26.37 L 109.424 26.37 L 109.424 0.735 Q 107.796 0.735 106.797 1.206 A 2.576 2.576 0 0 0 105.322 2.933 A 6.276 6.276 0 0 0 105.158 3.704 Q 105.033 4.522 105.029 5.642 A 20.839 20.839 0 0 0 105.029 5.716 A 46.574 46.574 0 0 0 85.995 0.172 A 56.596 56.596 0 0 0 81.592 0.003 A 45.731 45.731 0 0 0 71.599 1.03 Q 64.846 2.542 59.874 6.28 A 27.218 27.218 0 0 0 56.982 8.792 A 20.162 20.162 0 0 0 51.123 23.148 A 19.947 19.947 0 0 0 57.631 37.92 Q 60.312 40.521 64.098 42.757 A 45.378 45.378 0 0 0 64.893 43.216 A 36.761 36.761 0 0 0 66.238 43.88 Q 70.047 45.688 81.592 50.687 Q 94.775 56.546 98.291 62.552 A 14.635 14.635 0 0 1 100.195 69.876 A 16.292 16.292 0 0 1 98.802 76.747 Q 97.089 80.479 93.271 83.003 A 22.172 22.172 0 0 1 90.234 84.671 Q 85.547 86.722 79.834 86.722 A 26.769 26.769 0 0 1 68.869 84.467 Q 57.806 79.359 55.333 62.692 A 60.844 60.844 0 0 1 54.932 59.329 L 50.537 59.329 L 50.537 89.651 A 9.121 9.121 0 0 0 51.929 89.554 Q 53.639 89.289 54.315 88.299 A 2.398 2.398 0 0 0 54.639 87.601 Q 54.922 86.469 54.931 83.561 A 62.565 62.565 0 0 0 54.932 83.353 A 45.138 45.138 0 0 0 79.45 90.812 A 54.489 54.489 0 0 0 80.566 90.823 A 50.093 50.093 0 0 0 91.025 89.798 Q 100.512 87.772 106.641 81.741 A 21.239 21.239 0 0 0 112.939 66.378 A 25.371 25.371 0 0 0 112.939 66.36 A 21.258 21.258 0 0 0 105.355 49.977 A 36.267 36.267 0 0 0 98.877 45.413 A 45.176 45.176 0 0 0 97.426 44.694 Q 93.402 42.767 81.738 37.649 A 77.709 77.709 0 0 1 75.824 34.848 Q 70.187 31.854 67.273 28.778 A 13.629 13.629 0 0 1 65.332 26.224 Q 63.574 23.001 63.574 19.339 A 15.466 15.466 0 0 1 64.649 13.423 Q 66.773 8.245 73.096 5.716 A 23.34 23.34 0 0 1 79.372 4.239 A 28.604 28.604 0 0 1 82.178 4.105 A 28.849 28.849 0 0 1 89.945 5.091 A 20.453 20.453 0 0 1 100.928 12.454 Q 105.034 17.977 105.034 25.826 A 30.475 30.475 0 0 1 105.029 26.37 Z" id="1" vector-effect="non-scaling-stroke"/>
		<path d="M 205.078 90.091 L 205.078 62.405 L 201.563 62.405 Q 194.456 85.397 173.83 86.65 A 39.721 39.721 0 0 1 171.68 86.722 Q 156.235 86.722 148.788 74.099 A 38.447 38.447 0 0 1 145.752 67.532 Q 142.61 58.79 142.398 47.117 A 93.868 93.868 0 0 1 142.383 45.413 A 77.459 77.459 0 0 1 143.386 32.457 Q 144.547 25.631 147.054 20.372 A 29.022 29.022 0 0 1 157.471 8.206 A 27.171 27.171 0 0 1 172.119 4.105 A 30.019 30.019 0 0 1 184.203 6.435 Q 193.442 10.451 198.633 21.39 Q 200.098 24.466 201.123 27.689 L 204.639 27.689 L 204.199 0.735 A 7.695 7.695 0 0 0 202.825 0.848 Q 200.805 1.216 200.244 2.786 Q 199.805 4.544 199.805 8.499 A 17.733 17.733 0 0 0 196.273 5.827 Q 192.112 3.365 185.303 1.614 A 58.999 58.999 0 0 0 171.533 0.003 A 49.787 49.787 0 0 0 156.298 2.216 A 39.063 39.063 0 0 0 136.084 17.142 A 47.269 47.269 0 0 0 127.613 43.401 A 57.828 57.828 0 0 0 127.588 45.12 A 51.231 51.231 0 0 0 130.195 61.758 A 44.113 44.113 0 0 0 139.453 77.347 A 41.893 41.893 0 0 0 167.935 90.662 A 57.106 57.106 0 0 0 172.266 90.823 A 55.12 55.12 0 0 0 199.482 83.238 A 65.332 65.332 0 0 0 200.537 82.62 A 33.485 33.485 0 0 0 200.599 84.742 Q 200.805 87.965 201.695 89.134 A 1.742 1.742 0 0 0 202.295 89.651 Q 203.32 90.091 205.078 90.091 Z" id="2" vector-effect="non-scaling-stroke"/>
		<path d="M 217.529 89.358 L 256.494 89.358 A 6.657 6.657 0 0 0 256.382 88.082 Q 255.981 86.04 254.15 85.696 A 7.452 7.452 0 0 0 252.686 85.55 L 241.846 85.55 L 241.846 50.54 L 254.736 50.54 A 65.572 65.572 0 0 0 265.732 49.689 Q 271.462 48.711 275.852 46.61 A 23.629 23.629 0 0 0 286.523 36.917 A 21.605 21.605 0 0 0 289.431 28.122 A 27.248 27.248 0 0 0 289.6 25.052 Q 289.6 11.474 278.557 5.473 A 27.861 27.861 0 0 0 277.002 4.69 A 31.603 31.603 0 0 0 269.098 2.176 Q 265.581 1.523 261.572 1.472 A 53.709 53.709 0 0 0 260.889 1.468 L 217.529 1.468 L 217.529 5.276 L 229.248 5.276 L 229.248 85.55 L 217.529 85.55 L 217.529 89.358 Z M 241.846 5.276 L 257.813 5.276 A 21.912 21.912 0 0 1 264.395 6.197 Q 271.917 8.561 274.658 16.995 A 26.796 26.796 0 0 1 275.766 23.171 A 31.492 31.492 0 0 1 275.83 25.198 Q 275.83 42.506 261.794 45.656 A 27.466 27.466 0 0 1 258.838 46.146 A 42.316 42.316 0 0 1 255.322 46.292 L 241.846 46.292 L 241.846 5.276 Z" id="3" vector-effect="non-scaling-stroke"/>
	</g>
</svg>